<svg width="20" height="20" viewBox="0 0 24 24" fill="none" xmlns="http://www.w3.org/2000/svg">
  <path d="M5 3.2 H13 L17 7.2 V14" stroke="#0a0a0a" stroke-width="1.7" stroke-linecap="round" stroke-linejoin="round"/>
  <path d="M5 3.2 V20.8 H11" stroke="#0a0a0a" stroke-width="1.7" stroke-linecap="round" stroke-linejoin="round"/>
  <path d="M12.8 3.4 V7.4 H16.8" stroke="#0a0a0a" stroke-width="1.7" stroke-linecap="round" stroke-linejoin="round"/>
  <path d="M7.8 11 H11" stroke="#0a0a0a" stroke-width="1.6" stroke-linecap="round"/>
  <path d="M17.5 13 C17.7 15.4 18.6 16.3 21 16.5 C18.6 16.7 17.7 17.6 17.5 20 C17.3 17.6 16.4 16.7 14 16.5 C16.4 16.3 17.3 15.4 17.5 13 Z" stroke="#0a0a0a" stroke-width="1.6" stroke-linejoin="round" fill="none"/>
  <path d="M21 11 C21.1 12 21.4 12.3 22.4 12.4 C21.4 12.5 21.1 12.8 21 13.8 C20.9 12.8 20.6 12.5 19.6 12.4 C20.6 12.3 20.9 12 21 11 Z" stroke="#0a0a0a" stroke-width="1.3" stroke-linejoin="round" fill="none"/>
</svg>
